# xmcd
# Track frame offsets:
# 150
# 27530
# 50399
# 73149
# 99700
# 126056
# 148697
# 172764
# 205327
# 223976
# 247338
# 270509
# 297108
# 313505
#
# Disc length: 4469 seconds
# Revision: 0
# Processed by: cddbd v1.5.2PL0 Copyright (c) Steve Scherf et al.
# Submitted via: VisiTrax 2.10.0.248 - For more info visit www.synapsa.com
#
DISCID=df11730e
DTITLE=McDaniel, Al "Coffee" - Blues In My Shoes
DYEAR=2007
DGENRE=Blues
TTITLE0=Just Tryin' To Be Me
TTITLE1=Blues In My Shoes
TTITLE2=She Ain't Perfect
TTITLE3=A Shout-Out
TTITLE4=2-Headed Monstah
TTITLE5=For The DJ
TTITLE6=Taxi
TTITLE7=Hey Baby
TTITLE8=Hello Forever
TTITLE9=What A Woman Wants
TTITLE10=Don't Mess With My Dog
TTITLE11=Thrill Is Gone
TTITLE12=Scufflin
TTITLE13=Reggae Blues
EXTD=
EXTT0=
EXTT1=
EXTT2=
EXTT3=
EXTT4=
EXTT5=
EXTT6=
EXTT7=
EXTT8=
EXTT9=
EXTT10=
EXTT11=
EXTT12=
EXTT13=
PLAYORDER=
